<svg width="24" height="23" viewBox="0 0 24 23" fill="none" xmlns="http://www.w3.org/2000/svg">
<path d="M18.4655 15.6884L13.6831 9.84303L10.0289 13.4987L10.0288 13.4987C9.94599 13.5815 9.84622 13.6452 9.73638 13.6857C9.62654 13.7262 9.50923 13.7423 9.39253 13.7331C9.27584 13.7239 9.16253 13.6894 9.06042 13.6322C8.95831 13.575 8.86983 13.4963 8.80106 13.4015L3.08444 5.54119L3.08439 5.54123L3.08242 5.5383C2.96552 5.36438 2.92059 5.15191 2.95707 4.94555C2.99355 4.7392 3.10859 4.55501 3.27803 4.43171C3.44747 4.3084 3.65811 4.25558 3.86569 4.28433C4.07326 4.31308 4.26161 4.42118 4.39115 4.5859L4.39121 4.58586L4.39331 4.58876L9.55277 11.683L13.1712 8.06459L13.1712 8.06453C13.2512 7.98467 13.3471 7.92245 13.4526 7.88186C13.5581 7.84127 13.6709 7.82322 13.7838 7.82886C13.8967 7.83451 14.0072 7.86372 14.1081 7.91463C14.209 7.96554 14.2982 8.03702 14.3698 8.12446L14.3699 8.12452L19.3644 14.2305V10.7816C19.3644 10.5669 19.4498 10.3609 19.6016 10.209C19.7535 10.0571 19.9595 9.97178 20.1743 9.97178C20.3891 9.97178 20.5951 10.0571 20.747 10.209C20.8988 10.3609 20.9842 10.5669 20.9842 10.7816V16.4983C20.9842 16.7131 20.8988 16.9191 20.747 17.071C20.5951 17.2228 20.3891 17.3082 20.1743 17.3082H14.4576C14.2428 17.3082 14.0368 17.2228 13.885 17.071C13.7331 16.9191 13.6478 16.7131 13.6478 16.4983C13.6478 16.2835 13.7331 16.0775 13.885 15.9256C14.0368 15.7738 14.2428 15.6884 14.4576 15.6884L18.4655 15.6884Z" fill="black" stroke="black" stroke-width="0.190556"/>
</svg>
