<svg width="24" height="23" viewBox="0 0 24 23" fill="none" xmlns="http://www.w3.org/2000/svg">
<path d="M18.4664 7.30399L13.684 13.1494L10.0298 9.49376L10.0297 9.49371C9.94691 9.41098 9.84714 9.34718 9.7373 9.30672C9.62745 9.26626 9.51014 9.25008 9.39345 9.25932C9.27675 9.26856 9.16345 9.30298 9.06134 9.36023C8.95923 9.41747 8.87074 9.49616 8.80197 9.59089L3.08535 17.4512L3.0853 17.4512L3.08333 17.4541C2.96643 17.6281 2.9215 17.8405 2.95798 18.0469C2.99446 18.2532 3.10951 18.4374 3.27895 18.5607C3.44839 18.684 3.65903 18.7369 3.8666 18.7081C4.07418 18.6793 4.26253 18.5713 4.39207 18.4065L4.39212 18.4066L4.39423 18.4037L9.55368 11.3094L13.1721 14.9278L13.1722 14.9279C13.2522 15.0078 13.348 15.07 13.4535 15.1106C13.559 15.1512 13.6718 15.1692 13.7847 15.1636C13.8976 15.1579 14.0081 15.1287 14.109 15.0778C14.21 15.0269 14.2991 14.9554 14.3707 14.868L14.3708 14.8679L19.3653 8.76192V12.2108C19.3653 12.4256 19.4507 12.6316 19.6026 12.7834C19.7544 12.9353 19.9604 13.0207 20.1752 13.0207C20.39 13.0207 20.596 12.9353 20.7479 12.7834C20.8997 12.6316 20.9851 12.4256 20.9851 12.2108V6.49412C20.9851 6.27934 20.8997 6.07334 20.7479 5.92147C20.596 5.76959 20.39 5.68426 20.1752 5.68426H14.4585C14.2438 5.68426 14.0378 5.76959 13.8859 5.92147C13.734 6.07334 13.6487 6.27934 13.6487 6.49412C13.6487 6.70891 13.734 6.9149 13.8859 7.06678C14.0378 7.21866 14.2438 7.30399 14.4585 7.30399H18.4664Z" fill="black" stroke="black" stroke-width="0.190556"/>
</svg>
