<svg width="419" height="202" viewBox="0 0 419 202" fill="none" xmlns="http://www.w3.org/2000/svg">
<mask id="mask0_0_1179" style="mask-type:alpha" maskUnits="userSpaceOnUse" x="0" y="0" width="419" height="202">
<rect x="0.61261" y="0.441406" width="417.613" height="201.369" fill="#C4C4C4"/>
</mask>
<g mask="url(#mask0_0_1179)">
<path opacity="0.2" d="M68.9397 102.257C35.1488 101.261 3.016 147.998 -5.68018 167.486V202.955H442.824L427.378 49.0675C393.054 57.6485 356.441 40.4864 345.975 40.059C322.371 40.059 287.172 88.9871 271.436 114.695C258.516 137.583 242.035 142.476 235.409 142.061C204.6 143.057 181.162 91.8898 173.294 66.1819C166.337 37.3222 158.505 31.3518 154.659 31.3518C148.207 31.3332 138.509 39.8106 128.571 68.6698C118.632 97.529 102.896 105.573 96.2705 105.988C87.0031 106.568 75.9794 102.256 68.9397 102.257Z" fill="url(#paint0_linear_0_1179)"/>
<path d="M-5.68018 167.486C3.016 147.998 35.1488 101.261 68.9397 102.257C75.9794 102.256 87.0031 106.568 96.2705 105.988C102.896 105.573 118.632 97.529 128.571 68.6698C138.509 39.8106 148.207 31.3332 154.659 31.3518C158.505 31.3518 166.337 37.3222 173.294 66.1819C181.162 91.8898 204.6 143.057 235.409 142.061C242.035 142.476 258.516 137.583 271.436 114.695C287.172 88.9871 322.371 40.059 345.975 40.059C356.441 40.4864 393.054 57.6485 427.378 49.0675" stroke="#109CF1" stroke-width="2" stroke-linejoin="round"/>
<circle cx="312.964" cy="59.9369" r="4.72072" fill="white" stroke="#109CF1" stroke-width="2"/>
</g>
<defs>
<linearGradient id="paint0_linear_0_1179" x1="218.572" y1="31.3518" x2="218" y2="202.955" gradientUnits="userSpaceOnUse">
<stop stop-color="#109CF1"/>
<stop offset="1" stop-color="#109CF1" stop-opacity="0"/>
</linearGradient>
</defs>
</svg>
