<svg width="564" height="257" viewBox="0 0 564 257" fill="none" xmlns="http://www.w3.org/2000/svg">
<path d="M2.74963 192.069C3.35292 158.876 11.618 97.3182 39.852 116.631C75.1445 140.771 96.8629 185.531 113.152 144.291C129.441 103.051 142.11 74.3846 179.212 106.069C216.314 137.753 233.508 105.566 252.059 78.9112C270.61 52.2562 288.257 33.6479 319.929 72.3732C351.602 111.098 358.389 102.549 381.013 68.853C403.636 35.157 405.898 -3.56832 455.67 35.6599C505.441 74.8881 525.802 81.4259 540.734 42.7006C552.679 11.7204 559.285 2.96948 561.095 2.46655" stroke="#34C759" stroke-width="3.81111"/>
<path d="M2.74976 255.905C7.12361 238.261 25.1921 205.43 62.4755 215.26C109.08 227.548 124.464 219.514 144.825 192.102C165.186 164.69 205.908 159.492 227.174 180.759C248.44 202.027 298.664 205.335 320.382 162.327C342.1 119.319 360.199 117.429 405.446 142.95C450.693 168.471 464.719 147.676 476.031 133.497C487.343 119.319 495.939 111.757 525.802 115.065C549.693 117.712 559.888 90.6464 562 76.783" stroke="#3555F9" stroke-width="3.81111"/>
<path d="M3.65503 117.115C12.8403 96.5337 38.258 67.72 66.4463 117.115C101.682 178.859 104.913 238.752 158.149 220.022C208.291 202.38 172.152 86.9776 222.295 75.2181C239.913 73.0117 255.362 82.2738 277.407 131.081C304.963 192.09 338.096 118.681 347.878 84.7723C358.267 48.7552 384.016 46.55 416.541 98.7382C449.066 150.926 478.429 77.422 482.946 42.1398C487.464 6.85766 524.054 -6.37315 562 52.4304" stroke="#F97C35" stroke-width="3.81111"/>
</svg>
