<svg width="37" height="37" viewBox="0 0 37 37" fill="none" xmlns="http://www.w3.org/2000/svg">
<g clip-path="url(#clip0_0_208)">
<path d="M30.8334 9.25004H24.6667V6.16671C24.6667 4.47087 23.2792 3.08337 21.5834 3.08337H15.4167C13.7209 3.08337 12.3334 4.47087 12.3334 6.16671V9.25004H6.16671C4.47087 9.25004 3.08337 10.6375 3.08337 12.3334V30.8334C3.08337 32.5292 4.47087 33.9167 6.16671 33.9167H30.8334C32.5292 33.9167 33.9167 32.5292 33.9167 30.8334V12.3334C33.9167 10.6375 32.5292 9.25004 30.8334 9.25004ZM15.4167 6.16671H21.5834V9.25004H15.4167V6.16671ZM30.8334 30.8334H6.16671V12.3334H30.8334V30.8334Z" fill="#03A9F5"/>
<path d="M20.0417 15.4167H16.9584V20.0417H12.3334V23.1251H16.9584V27.7501H20.0417V23.1251H24.6667V20.0417H20.0417V15.4167Z" fill="#03A9F5"/>
</g>
<defs>
<clipPath id="clip0_0_208">
<rect width="37" height="37" fill="white"/>
</clipPath>
</defs>
</svg>
