<svg width="37" height="37" viewBox="0 0 37 37" fill="none" xmlns="http://www.w3.org/2000/svg">
<g clip-path="url(#clip0_0_371)">
<path d="M30.8333 9.24998H24.6666V6.16665C24.6666 4.47081 23.2791 3.08331 21.5833 3.08331H15.4166C13.7208 3.08331 12.3333 4.47081 12.3333 6.16665V9.24998H6.16659C4.47075 9.24998 3.08325 10.6375 3.08325 12.3333V30.8333C3.08325 32.5291 4.47075 33.9166 6.16659 33.9166H30.8333C32.5291 33.9166 33.9166 32.5291 33.9166 30.8333V12.3333C33.9166 10.6375 32.5291 9.24998 30.8333 9.24998ZM15.4166 6.16665H21.5833V9.24998H15.4166V6.16665ZM30.8333 30.8333H6.16659V12.3333H30.8333V30.8333Z" fill="#01A768"/>
<path d="M20.0416 15.4166H16.9583V20.0416H12.3333V23.125H16.9583V27.75H20.0416V23.125H24.6666V20.0416H20.0416V15.4166Z" fill="#01A768"/>
</g>
<defs>
<clipPath id="clip0_0_371">
<rect width="37" height="37" fill="white"/>
</clipPath>
</defs>
</svg>
