<svg width="110" height="91" viewBox="0 0 110 91" fill="none" xmlns="http://www.w3.org/2000/svg">
<g clip-path="url(#clip0_44_1072)">
<path d="M121.615 73.7103C119.32 61.5939 105.879 51.9101 103.258 39.2839C98.4928 23.2199 82.7878 20.6802 72.5824 27.6567C56.4119 38.7112 73.6624 41.4544 41.9573 67.6086C34.1286 74.0666 36.6232 102.574 61.2519 96.0314C74.5059 92.5106 78.5351 92.0166 84.4969 91.4368C99.5236 89.9758 125.466 94.0494 121.615 73.7103Z" fill="white" fill-opacity="0.05"/>
<path d="M103.663 76.7467L80.4378 89.5935L57.2474 76.7467V57.3472H103.663V76.7467Z" fill="white"/>
<path d="M80.4377 89.7908C80.407 89.7908 80.3768 89.7829 80.3497 89.7677L57.1601 76.921C57.1299 76.9044 57.1046 76.8794 57.087 76.8489C57.0693 76.8183 57.0599 76.7833 57.0598 76.7476V57.3474C57.0598 57.2952 57.0796 57.2451 57.1149 57.2081C57.1502 57.1712 57.1981 57.1504 57.248 57.1504H103.663C103.713 57.1504 103.761 57.1712 103.796 57.2081C103.831 57.2451 103.851 57.2952 103.851 57.3474V76.747C103.851 76.7827 103.842 76.8177 103.824 76.8483C103.806 76.8788 103.781 76.9037 103.751 76.9204L80.5256 89.7673C80.4986 89.7825 80.4684 89.7906 80.4377 89.7908ZM57.4355 76.6286L80.4377 89.371L103.475 76.6283V57.5445H57.4355V76.6286Z" fill="#262626"/>
<path d="M103.663 53.1845L80.4372 40.3378L90.8738 35.0693L114.099 47.9162L103.663 53.1845Z" fill="white"/>
<path d="M103.663 53.3816C103.632 53.3816 103.602 53.3738 103.575 53.3589L80.3495 40.512C80.3187 40.495 80.293 40.4693 80.2754 40.4379C80.2577 40.4065 80.2487 40.3706 80.2493 40.3341C80.2499 40.2977 80.2602 40.2621 80.279 40.2314C80.2978 40.2007 80.3243 40.1761 80.3556 40.1602L90.7923 34.8917C90.8188 34.8783 90.848 34.8715 90.8774 34.8721C90.9069 34.8727 90.9358 34.8805 90.9619 34.895L114.187 47.7419C114.218 47.7589 114.244 47.7846 114.261 47.816C114.279 47.8474 114.288 47.8833 114.288 47.9197C114.287 47.9562 114.277 47.9917 114.258 48.0224C114.239 48.0531 114.212 48.0777 114.181 48.0936L103.745 53.3621C103.719 53.375 103.691 53.3816 103.663 53.3816ZM80.8547 40.3456L103.667 52.9636L113.682 47.9079L90.8701 35.2902L80.8547 40.3456Z" fill="#AEBBFD"/>
<path d="M57.2475 53.1845L80.4729 40.3378L70.0363 35.0693L46.8109 47.9162L57.2475 53.1845Z" fill="white"/>
<path d="M57.2475 53.3816C57.2192 53.3816 57.1913 53.3749 57.1658 53.3621L46.7298 48.0936C46.6984 48.0777 46.6719 48.0531 46.6531 48.0224C46.6343 47.9917 46.6241 47.9562 46.6234 47.9197C46.6228 47.8833 46.6318 47.8474 46.6495 47.816C46.6672 47.7846 46.6928 47.7589 46.7236 47.7419L69.949 34.895C69.9751 34.8805 70.004 34.8727 70.0335 34.8721C70.063 34.8715 70.0921 34.8783 70.1187 34.8917L80.5553 40.1602C80.5866 40.1761 80.6132 40.2007 80.6319 40.2314C80.6507 40.2621 80.661 40.2977 80.6616 40.3341C80.6623 40.3706 80.6532 40.4065 80.6356 40.4379C80.6179 40.4693 80.5922 40.495 80.5615 40.512L57.336 53.3589C57.3087 53.3739 57.2784 53.3817 57.2475 53.3816ZM47.2283 47.9082L57.2436 52.9639L80.0556 40.3459L70.0402 35.2902L47.2283 47.9082Z" fill="#AEBBFD"/>
<path d="M57.2474 53.1846L80.4729 66.0314L68.5311 72.8761L45.3057 60.0294L57.2474 53.1846Z" fill="white"/>
<path d="M68.5311 73.0731C68.5004 73.0731 68.4702 73.0653 68.4432 73.0502L45.2177 60.2033C45.1877 60.1867 45.1626 60.1618 45.145 60.1315C45.1274 60.1011 45.118 60.0662 45.1177 60.0307C45.1175 59.9952 45.1264 59.9602 45.1436 59.9295C45.1608 59.8989 45.1856 59.8737 45.2153 59.8566L57.1571 53.0118C57.1843 52.9961 57.2149 52.9878 57.246 52.9876C57.2771 52.9873 57.3078 52.9952 57.3353 53.0105L80.5607 65.8574C80.5907 65.874 80.6158 65.8989 80.6334 65.9293C80.651 65.9597 80.6604 65.9945 80.6607 66.03C80.6609 66.0656 80.652 66.1005 80.6348 66.1312C80.6176 66.1618 80.5929 66.1871 80.5631 66.2042L68.6214 73.049C68.5937 73.0648 68.5626 73.0731 68.5311 73.0731ZM45.703 60.0262L68.5294 72.6524L80.0756 66.0344L57.249 53.4082L45.703 60.0262Z" fill="#AEBBFD"/>
<path d="M103.662 53.1846L80.437 66.0314L92.3787 72.8761L115.604 60.0294L103.662 53.1846Z" fill="white"/>
<path d="M92.3793 73.0731C92.3477 73.0731 92.3167 73.0648 92.289 73.049L80.3472 66.2042C80.3175 66.1871 80.2927 66.1618 80.2755 66.1312C80.2583 66.1005 80.2494 66.0656 80.2496 66.03C80.2499 65.9945 80.2593 65.9597 80.2769 65.9293C80.2945 65.8989 80.3196 65.874 80.3496 65.8574L103.575 53.0105C103.603 52.9952 103.633 52.9873 103.664 52.9876C103.695 52.9878 103.726 52.9961 103.753 53.0118L115.695 59.8566C115.725 59.8737 115.75 59.8989 115.767 59.9295C115.784 59.9602 115.793 59.9952 115.793 60.0307C115.792 60.0662 115.783 60.1011 115.765 60.1315C115.748 60.1618 115.723 60.1867 115.693 60.2033L92.4672 73.0502C92.4401 73.0653 92.4099 73.0731 92.3793 73.0731ZM80.835 66.0344L92.3811 72.6524L115.208 60.0262L103.661 53.4082L80.835 66.0344Z" fill="#AEBBFD"/>
<path d="M80.4728 40.3376L57.2474 53.1844L80.4378 66.0312L103.663 53.1844L80.4728 40.3376Z" fill="#262626"/>
<path d="M80.6255 66.031H80.2493V89.5934H80.6255V66.031Z" fill="#AEBBFD"/>
<path d="M62.9258 45.9248C62.8947 45.9249 62.8643 45.9147 62.839 45.8957C62.8064 45.8715 62.7843 45.8348 62.7776 45.7936C62.7709 45.7524 62.7801 45.7101 62.8031 45.6759C62.831 45.6348 65.5512 41.5162 62.5145 37.7615C61.977 37.0935 61.3065 36.5566 60.5501 36.1886C59.7936 35.8205 58.9694 35.6302 58.1353 35.6309H58.0944C58.3828 36.6801 58.3313 37.613 57.923 38.3286C57.749 38.652 57.4922 38.9181 57.1816 39.0969C56.871 39.2757 56.5189 39.3601 56.165 39.3406C55.872 39.3155 55.5924 39.2014 55.3604 39.0124C55.1283 38.8233 54.954 38.5675 54.8587 38.2763C54.5247 37.3639 54.8737 36.4793 55.7937 35.9092C56.3764 35.5726 57.024 35.3775 57.6885 35.3384C57.4723 34.7382 57.1912 34.1659 56.8507 33.6327C55.7542 31.8789 53.7559 30.6648 51.3679 30.3018C49.3441 29.9942 47.4046 30.3565 46.4261 31.2244C46.3957 31.2514 46.3562 31.2646 46.3164 31.2611C46.2766 31.2577 46.2398 31.2378 46.214 31.2059C46.1882 31.1739 46.1756 31.1326 46.1789 31.0909C46.1822 31.0493 46.2012 31.0107 46.2317 30.9837C47.2729 30.0601 49.3059 29.6697 51.4111 29.9906C53.8844 30.3667 55.9588 31.6314 57.1027 33.4607C57.4735 34.0408 57.7752 34.6663 58.0009 35.3232C58.9007 35.3006 59.7939 35.4897 60.6147 35.8765C61.4354 36.2634 62.1629 36.8381 62.7434 37.5584C65.9332 41.5022 63.0771 45.8159 63.0479 45.8591C63.034 45.8794 63.0156 45.896 62.9944 45.9074C62.9732 45.9188 62.9497 45.9248 62.9258 45.9248ZM57.7861 35.6425C57.1419 35.6712 56.5128 35.8554 55.9476 36.1806C55.1535 36.6727 54.8594 37.3956 55.1405 38.1636C55.2166 38.3989 55.3566 38.6059 55.5433 38.7592C55.73 38.9125 55.9553 39.0055 56.1916 39.0268C56.4892 39.0407 56.7847 38.9677 57.0449 38.8159C57.3052 38.6641 57.52 38.4394 57.6653 38.1671C58.0401 37.5097 58.0744 36.636 57.7857 35.6425H57.7861Z" fill="white"/>
<path d="M43.8284 33.7658C43.5727 33.8463 43.297 33.819 43.0601 33.6898C42.8233 33.5606 42.6439 33.3396 42.5603 33.074C42.4766 32.8084 42.4953 32.519 42.6123 32.2676C42.7293 32.0162 42.9354 31.8225 43.1867 31.7279C43.438 31.6332 43.7147 31.645 43.9578 31.7608C44.2009 31.8766 44.3913 32.0872 44.4883 32.3478C44.5854 32.6084 44.5815 32.8983 44.4775 33.1559C44.3734 33.4135 44.1775 33.6184 43.9314 33.727C43.8978 33.7419 43.8634 33.7548 43.8284 33.7658ZM43.328 32.0142C43.3036 32.0219 43.2796 32.0309 43.2562 32.0413C43.083 32.1178 42.9452 32.262 42.8721 32.4434C42.7989 32.6247 42.7963 32.8287 42.8647 33.0121C42.9331 33.1954 43.0672 33.3435 43.2383 33.4249C43.4094 33.5062 43.6041 33.5144 43.7809 33.4476C43.9577 33.3808 44.1027 33.2444 44.1848 33.0674C44.267 32.8904 44.28 32.6868 44.2209 32.4999C44.1619 32.313 44.0355 32.1577 43.8687 32.067C43.7019 31.9763 43.5079 31.9573 43.328 32.0142Z" fill="white"/>
<path d="M43.8267 31.2955C43.5848 31.3712 43.3247 31.3505 43.0964 31.2375C42.8681 31.1244 42.6878 30.927 42.5901 30.6831C42.5118 30.4876 42.4906 30.2722 42.5292 30.0641C42.5678 29.856 42.6644 29.6645 42.8069 29.5139C42.9494 29.3633 43.1313 29.2604 43.3297 29.2181C43.5281 29.1758 43.734 29.196 43.9213 29.2763C44.1087 29.3566 44.2691 29.4932 44.3823 29.669C44.4956 29.8447 44.5565 30.0517 44.5574 30.2637C44.5582 30.4757 44.4991 30.6832 44.3874 30.86C44.2756 31.0368 44.1164 31.1749 43.9297 31.2569C43.896 31.2717 43.8617 31.2845 43.8267 31.2955ZM43.3269 29.5438C43.3022 29.5515 43.2779 29.5606 43.2542 29.5711C43.0776 29.6487 42.9377 29.7967 42.8652 29.9823C42.7928 30.168 42.7936 30.3762 42.8677 30.5611C42.9217 30.696 43.0118 30.8115 43.1272 30.8939C43.2426 30.9762 43.3783 31.0217 43.5178 31.025C43.6574 31.0282 43.7949 30.989 43.9137 30.9122C44.0325 30.8353 44.1274 30.724 44.1871 30.5919C44.2467 30.4597 44.2685 30.3122 44.2499 30.1673C44.2312 30.0224 44.1728 29.8863 44.0818 29.7754C43.9908 29.6645 43.8711 29.5836 43.7371 29.5424C43.6031 29.5013 43.4606 29.5017 43.3269 29.5436V29.5438Z" fill="white"/>
<path d="M43.5345 32.4104C44.2737 32.4104 44.8729 31.9913 44.8729 31.4743C44.8729 30.9572 44.2737 30.5381 43.5345 30.5381C42.7954 30.5381 42.1962 30.9572 42.1962 31.4743C42.1962 31.9913 42.7954 32.4104 43.5345 32.4104Z" fill="white"/>
<path d="M44.1268 32.4793C43.9349 32.5387 43.7358 32.5687 43.5357 32.5682C42.7007 32.5682 42.0457 32.089 42.0457 31.4757C42.0457 30.8624 42.6987 30.3814 43.5335 30.3805C43.8974 30.3732 44.2554 30.4773 44.5637 30.68C44.7022 30.7555 44.8182 30.8693 44.8992 31.0091C44.9803 31.1488 45.0232 31.3092 45.0233 31.4727C45.0234 31.6362 44.9808 31.7966 44.9 31.9365C44.8192 32.0764 44.7034 32.1904 44.5651 32.2662C44.4298 32.3596 44.2821 32.4314 44.1268 32.4793ZM43.0338 30.7708C42.6316 30.8969 42.3465 31.1691 42.3467 31.4749C42.3467 31.8969 42.8911 32.253 43.5357 32.2523C43.8402 32.2591 44.14 32.1727 44.3985 32.0039C44.4954 31.9572 44.5775 31.8823 44.635 31.7881C44.6925 31.694 44.723 31.5846 44.7229 31.4728C44.7228 31.361 44.6921 31.2517 44.6344 31.1576C44.5768 31.0636 44.4946 30.9889 44.3975 30.9423C44.1389 30.7738 43.839 30.688 43.5345 30.6954C43.365 30.695 43.1963 30.7204 43.0338 30.7708Z" fill="white"/>
<path d="M43.8629 32.3819L43.8313 30.5613L43.3991 30.543L43.3688 32.4032L43.8629 32.3819Z" fill="white"/>
<path d="M41.759 31.8705C41.8353 31.8705 41.8971 31.8057 41.8971 31.7258C41.8971 31.6458 41.8353 31.5811 41.759 31.5811C41.6826 31.5811 41.6208 31.6458 41.6208 31.7258C41.6208 31.8057 41.6826 31.8705 41.759 31.8705Z" fill="white"/>
<path d="M41.8668 31.096C41.9431 31.096 42.0049 31.0313 42.0049 30.9513C42.0049 30.8714 41.9431 30.8066 41.8668 30.8066C41.7905 30.8066 41.7286 30.8714 41.7286 30.9513C41.7286 31.0313 41.7905 31.096 41.8668 31.096Z" fill="white"/>
<path d="M91.0741 42.9278C91.0419 42.9278 91.0106 42.917 90.9847 42.8969C90.9588 42.8768 90.9397 42.8486 90.9302 42.8164C90.431 40.8639 90.2978 38.8286 90.538 36.8231C90.9271 33.8912 92.471 30.0432 97.6166 28.3583C98.3406 28.1145 99.0832 27.9362 99.8363 27.8254C100.079 26.2395 101.001 24.5191 103.064 23.3321C107.965 20.5118 111.275 23.0422 111.308 23.0681C111.34 23.0932 111.361 23.1305 111.367 23.1719C111.372 23.2133 111.362 23.2553 111.338 23.2888C111.314 23.3222 111.279 23.3443 111.239 23.3503C111.2 23.3562 111.159 23.3454 111.128 23.3203C111.096 23.2957 107.932 20.8901 103.209 23.6086C101.282 24.7179 100.399 26.3099 100.148 27.7879C102.418 27.5538 103.505 28.3467 103.993 28.9455C104.294 29.3056 104.488 29.7508 104.55 30.2255C104.612 30.7003 104.539 31.1836 104.341 31.6153C104.184 31.9642 103.93 32.2551 103.612 32.4496C103.294 32.644 102.927 32.7328 102.56 32.7044C101.292 32.6265 100.243 31.5098 99.8876 29.8594C99.7704 29.3008 99.7392 28.726 99.7952 28.157C99.0869 28.2636 98.3882 28.4319 97.7066 28.66C93.6962 29.9733 91.3851 32.7348 90.836 36.8674C90.6008 38.8274 90.7305 40.8166 91.218 42.7249C91.2249 42.7485 91.2264 42.7734 91.2225 42.7977C91.2185 42.822 91.2091 42.845 91.1951 42.8648C91.1811 42.8846 91.1629 42.9008 91.1419 42.9119C91.1209 42.923 91.0977 42.9287 91.0741 42.9287V42.9278ZM100.102 28.1176C100.039 28.6758 100.066 29.241 100.181 29.7899C100.507 31.2997 101.447 32.3201 102.577 32.3896C102.885 32.4127 103.193 32.3378 103.459 32.1746C103.726 32.0114 103.939 31.7677 104.071 31.4753C104.243 31.0989 104.306 30.6777 104.251 30.2643C104.196 29.8509 104.027 29.4635 103.763 29.1504C103.059 28.2855 101.775 27.9362 100.102 28.1176Z" fill="white"/>
</g>
<defs>
<clipPath id="clip0_44_1072">
<rect width="110" height="91" fill="white"/>
</clipPath>
</defs>
</svg>
