<svg width="37" height="37" viewBox="0 0 37 37" fill="none" xmlns="http://www.w3.org/2000/svg">
<g clip-path="url(#clip0_0_182)">
<path d="M29.2917 21.5833V9.24996C29.2917 7.55413 27.9042 6.16663 26.2084 6.16663H4.62508C2.92925 6.16663 1.54175 7.55413 1.54175 9.24996V21.5833C1.54175 23.2791 2.92925 24.6666 4.62508 24.6666H26.2084C27.9042 24.6666 29.2917 23.2791 29.2917 21.5833ZM26.2084 21.5833H4.62508V9.24996H26.2084V21.5833ZM15.4167 10.7916C12.8576 10.7916 10.7917 12.8575 10.7917 15.4166C10.7917 17.9758 12.8576 20.0416 15.4167 20.0416C17.9759 20.0416 20.0417 17.9758 20.0417 15.4166C20.0417 12.8575 17.9759 10.7916 15.4167 10.7916ZM35.4584 10.7916V27.75C35.4584 29.4458 34.0709 30.8333 32.3751 30.8333H6.16675C6.16675 29.2916 6.16675 29.4458 6.16675 27.75H32.3751V10.7916C34.0709 10.7916 33.9167 10.7916 35.4584 10.7916Z" fill="#FED600"/>
</g>
<defs>
<clipPath id="clip0_0_182">
<rect width="37" height="37" fill="white"/>
</clipPath>
</defs>
</svg>
