<svg width="395" height="247" viewBox="0 0 395 247" fill="none" xmlns="http://www.w3.org/2000/svg">
<path d="M1 245C1 245 22.7938 233.111 25.6341 221.498C27.8378 212.488 14.5397 206.615 19.9052 198.44C27.7074 186.552 50.1955 206.398 64.0175 198.44C74.2933 192.523 68.0846 181.119 78.9125 175.825C87.8748 171.443 97.412 178.143 105.838 173.164C114.457 168.072 112.771 161.185 116.15 153.21C121.852 139.752 114.786 128.993 125.889 117.735C138.599 104.849 159.671 112.244 175.157 101.328C188.52 91.9104 181.167 71.3961 199.219 70.7318C218.819 70.0104 206.581 96.8996 223.28 104.876C236.019 110.961 248.257 103.789 261.09 109.754C272.387 115.004 269.824 128.219 282.86 129.708C297.914 131.428 307.441 120.972 312.077 109.754C317.295 97.1298 293.907 90.0611 298.901 77.3832C305.881 59.6634 341.612 75.2254 356.189 60.5328C365.627 51.0204 358.508 40.6122 368.22 31.2664C372.389 27.2545 377.775 26.974 380.824 22.3978C384.822 16.3951 374.494 9.75228 380.824 5.10401C384.726 2.23858 394 2 394 2" stroke="#B2EDD3" stroke-width="3.67037"/>
</svg>
