<svg width="23" height="18" viewBox="0 0 23 18" fill="none" xmlns="http://www.w3.org/2000/svg">
<path d="M15.5728 16.875C16.4991 16.875 17.2499 16.2874 17.2499 15.5625C17.2499 14.8376 16.4991 14.25 15.5728 14.25C14.6466 14.25 13.8958 14.8376 13.8958 15.5625C13.8958 16.2874 14.6466 16.875 15.5728 16.875Z" fill="white"/>
<path d="M7.90633 16.875C8.83256 16.875 9.58342 16.2874 9.58342 15.5625C9.58342 14.8376 8.83256 14.25 7.90633 14.25C6.9801 14.25 6.22925 14.8376 6.22925 15.5625C6.22925 16.2874 6.9801 16.875 7.90633 16.875Z" fill="white"/>
<path d="M4.63817 2.955L4.4465 4.7925C4.40817 5.145 4.76275 5.4375 5.21317 5.4375H19.8853C20.2878 5.4375 20.6232 5.1975 20.6519 4.8825C20.7765 3.555 19.4828 2.475 17.7865 2.475H6.00859C5.91275 2.145 5.72109 1.83 5.424 1.5675C4.94484 1.17 4.274 0.9375 3.584 0.9375H1.9165C1.52359 0.9375 1.19775 1.1925 1.19775 1.5C1.19775 1.8075 1.52359 2.0625 1.9165 2.0625H3.584C3.88109 2.0625 4.159 2.16 4.36025 2.325C4.5615 2.4975 4.65734 2.7225 4.63817 2.955Z" fill="white"/>
<path d="M19.6554 6.5625H4.95455C4.55205 6.5625 4.22622 6.8025 4.18789 7.11L3.84289 10.3725C3.70872 11.655 4.99289 12.75 6.63164 12.75H17.2883C18.7258 12.75 19.9908 11.8275 20.0962 10.7025L20.4125 7.2C20.4508 6.855 20.1058 6.5625 19.6554 6.5625Z" fill="white"/>
</svg>
