<svg width="23" height="18" viewBox="0 0 23 18" fill="none" xmlns="http://www.w3.org/2000/svg">
<path d="M20.6328 8.15241L19.1762 7.01241C18.927 6.81741 18.7258 6.43491 18.7258 6.16491V4.54491C18.7258 3.88491 18.0358 3.34491 17.1924 3.34491H15.132C14.787 3.34491 14.2983 3.18741 14.0491 2.99241L12.5924 1.85241C11.9983 1.38741 11.0208 1.38741 10.4266 1.85241L8.95076 2.99241C8.71118 3.18741 8.22243 3.34491 7.86785 3.34491H5.80743C4.96409 3.34491 4.27409 3.88491 4.27409 4.54491V6.15741C4.27409 6.42741 4.07284 6.80991 3.82368 7.00491L2.36701 8.14491C1.77285 8.60991 1.77285 9.37491 2.36701 9.83991L3.82368 10.9799C4.07284 11.1749 4.27409 11.5574 4.27409 11.8274V13.4399C4.27409 14.0999 4.96409 14.6399 5.80743 14.6399H7.86785C8.21284 14.6399 8.70159 14.7974 8.95076 14.9924L10.4074 16.1324C11.0016 16.5974 11.9791 16.5974 12.5733 16.1324L14.0299 14.9924C14.2791 14.7974 14.7678 14.6399 15.1128 14.6399H17.1733C18.0166 14.6399 18.7066 14.0999 18.7066 13.4399V11.8274C18.7066 11.5574 18.9078 11.1749 19.157 10.9799L20.6137 9.83991C21.2366 9.38241 21.2366 8.61741 20.6328 8.15241ZM7.66659 6.74991C7.66659 6.33741 8.09784 5.99991 8.62493 5.99991C9.15201 5.99991 9.58326 6.33741 9.58326 6.74991C9.58326 7.16241 9.16159 7.49991 8.62493 7.49991C8.09784 7.49991 7.66659 7.16241 7.66659 6.74991ZM9.13284 11.6474C8.98909 11.7599 8.80701 11.8124 8.62493 11.8124C8.44284 11.8124 8.26076 11.7599 8.11701 11.6474C7.8391 11.4299 7.8391 11.0699 8.11701 10.8524L13.867 6.35241C14.1449 6.13491 14.6049 6.13491 14.8828 6.35241C15.1608 6.56991 15.1608 6.92991 14.8828 7.14741L9.13284 11.6474ZM14.3749 11.9999C13.8383 11.9999 13.407 11.6624 13.407 11.2499C13.407 10.8374 13.8383 10.4999 14.3653 10.4999C14.8924 10.4999 15.3237 10.8374 15.3237 11.2499C15.3237 11.6624 14.902 11.9999 14.3749 11.9999Z" fill="white"/>
</svg>
