<svg width="23" height="20" viewBox="0 0 23 20" fill="none" xmlns="http://www.w3.org/2000/svg">
<path d="M15.9561 4.7666H7.04359C4.2165 4.7666 1.9165 6.7666 1.9165 9.22494V13.8749C1.9165 16.3333 4.2165 18.3333 7.04359 18.3333H15.9561C18.7832 18.3333 21.0832 16.3333 21.0832 13.8749V9.22494C21.0832 6.7666 18.7832 4.7666 15.9561 4.7666ZM13.8957 10.0166C13.8957 9.55827 14.3269 9.18327 14.854 9.18327C15.3811 9.18327 15.8123 9.55827 15.8123 10.0166C15.8123 10.4749 15.3811 10.8583 14.854 10.8583C14.3269 10.8583 13.8957 10.4916 13.8957 10.0333V10.0166ZM9.70775 13.3916C9.564 13.5166 9.38192 13.5749 9.19984 13.5749C9.01775 13.5749 8.83567 13.5166 8.69192 13.3916L7.70484 12.5333L6.75609 13.3583C6.61234 13.4833 6.43025 13.5416 6.24817 13.5416C6.06609 13.5416 5.884 13.4833 5.74025 13.3583C5.46234 13.1166 5.46234 12.7166 5.74025 12.4749L6.689 11.6499L5.769 10.8499C5.49109 10.6083 5.49109 10.2083 5.769 9.9666C6.04692 9.72494 6.50692 9.72494 6.78484 9.9666L7.70484 10.7666L8.65359 9.9416C8.9315 9.69994 9.3915 9.69994 9.66942 9.9416C9.94734 10.1833 9.94734 10.5833 9.66942 10.8249L8.72067 11.6499L9.70775 12.5083C9.98567 12.7499 9.98567 13.1499 9.70775 13.3916ZM12.9757 12.4999C12.4486 12.4999 12.0078 12.1249 12.0078 11.6666C12.0078 11.2083 12.4294 10.8333 12.9565 10.8333H12.9757C13.5028 10.8333 13.934 11.2083 13.934 11.6666C13.934 12.1249 13.5123 12.4999 12.9757 12.4999ZM14.854 14.1416C14.3269 14.1416 13.8957 13.7749 13.8957 13.3166V13.2999C13.8957 12.8416 14.3269 12.4666 14.854 12.4666C15.3811 12.4666 15.8123 12.8416 15.8123 13.2999C15.8123 13.7583 15.3907 14.1416 14.854 14.1416ZM16.7515 12.4999C16.2244 12.4999 15.7836 12.1249 15.7836 11.6666C15.7836 11.2083 16.2053 10.8333 16.7323 10.8333H16.7515C17.2786 10.8333 17.7098 11.2083 17.7098 11.6666C17.7098 12.1249 17.2882 12.4999 16.7515 12.4999Z" fill="white"/>
<path d="M13.0716 2.25841L13.062 3.04175C13.0524 3.77508 12.3528 4.38341 11.4999 4.38341C11.3561 4.38341 11.2699 4.46675 11.2699 4.57508C11.2699 4.68341 11.3657 4.76675 11.4903 4.76675H9.94739C9.93781 4.70841 9.92822 4.64175 9.92822 4.57508C9.92822 3.82508 10.6278 3.21675 11.4807 3.21675C11.6245 3.21675 11.7203 3.13341 11.7203 3.02508L11.7299 2.24175C11.7395 1.92508 12.0366 1.66675 12.4007 1.66675H12.4103C12.7841 1.66675 13.0716 1.93341 13.0716 2.25841Z" fill="white"/>
</svg>
