<svg width="22" height="19" viewBox="0 0 22 19" fill="none" xmlns="http://www.w3.org/2000/svg">
<path d="M14.8408 1.58325H7.15909C3.82242 1.58325 1.83325 3.30117 1.83325 6.18284V12.8091C1.83325 15.6987 3.82242 17.4166 7.15909 17.4166H14.8316C18.1683 17.4166 20.1574 15.6987 20.1574 12.817V6.18284C20.1666 3.30117 18.1774 1.58325 14.8408 1.58325ZM16.2158 11.1228C16.1791 11.1941 16.1333 11.2574 16.0691 11.3128L13.3649 13.6483C13.2274 13.767 13.0533 13.8224 12.8791 13.8224C12.7049 13.8224 12.5308 13.767 12.3933 13.6483C12.1274 13.4187 12.1274 13.0387 12.3933 12.8091L13.9241 11.487H6.41659C6.04075 11.487 5.72909 11.2178 5.72909 10.8933C5.72909 10.5687 6.04075 10.2995 6.41659 10.2995H15.5833C15.6749 10.2995 15.7574 10.3153 15.8491 10.347C16.0141 10.4103 16.1516 10.5212 16.2249 10.6716C16.2891 10.8141 16.2891 10.9724 16.2158 11.1228ZM15.5833 8.70033H6.41659C6.32492 8.70033 6.24242 8.6845 6.15075 8.65284C5.98575 8.5895 5.84825 8.47867 5.77492 8.32825C5.70159 8.18575 5.70159 8.0195 5.77492 7.877C5.82075 7.80575 5.86659 7.74242 5.93075 7.687L8.63492 5.35159C8.90075 5.122 9.34075 5.122 9.60659 5.35159C9.87242 5.58117 9.87242 5.96117 9.60659 6.19075L8.07575 7.51284H15.5833C15.9591 7.51284 16.2708 7.782 16.2708 8.10658C16.2708 8.43117 15.9591 8.70033 15.5833 8.70033Z" fill="white"/>
</svg>
