<svg width="23" height="18" viewBox="0 0 23 18" fill="none" xmlns="http://www.w3.org/2000/svg">
<path d="M17.5662 4.2525L6.31541 13.0575C5.89374 13.3875 5.18458 13.3425 4.83958 12.9525C3.65124 11.595 2.95166 9.99 2.95166 8.34V5.0475C2.95166 4.4325 3.54583 3.735 4.27416 3.5025L9.61208 1.7925C10.8196 1.4025 12.1612 1.4025 13.3687 1.7925L17.25 3.03C17.8825 3.2325 18.0454 3.8775 17.5662 4.2525Z" fill="white"/>
<path d="M18.4672 5.28021C19.0901 4.86771 20.0388 5.22021 20.0388 5.85771V8.34021C20.0388 12.0077 16.6368 15.4427 11.9888 16.4477C11.6726 16.5152 11.3276 16.5152 11.0018 16.4477C9.64092 16.1477 8.37592 15.6452 7.293 14.9852C6.833 14.7077 6.78509 14.1827 7.18759 13.8602C9.27675 12.1877 15.3909 7.31271 18.4672 5.28021Z" fill="white"/>
</svg>
