<svg width="25" height="17" viewBox="0 0 25 17" fill="none" xmlns="http://www.w3.org/2000/svg">
<path d="M5.20846 7.0835C4.06262 7.0835 3.12512 7.721 3.12512 8.50016C3.12512 9.27933 4.06262 9.91683 5.20846 9.91683C6.35429 9.91683 7.29179 9.27933 7.29179 8.50016C7.29179 7.721 6.35429 7.0835 5.20846 7.0835Z" stroke="#0D1218" stroke-width="1.58957"/>
<path d="M19.7917 7.0835C18.6459 7.0835 17.7084 7.721 17.7084 8.50016C17.7084 9.27933 18.6459 9.91683 19.7917 9.91683C20.9375 9.91683 21.875 9.27933 21.875 8.50016C21.875 7.721 20.9375 7.0835 19.7917 7.0835Z" stroke="#0D1218" stroke-width="1.58957"/>
<path d="M12.5 7.0835C11.3541 7.0835 10.4166 7.721 10.4166 8.50016C10.4166 9.27933 11.3541 9.91683 12.5 9.91683C13.6458 9.91683 14.5833 9.27933 14.5833 8.50016C14.5833 7.721 13.6458 7.0835 12.5 7.0835Z" stroke="#0D1218" stroke-width="1.58957"/>
</svg>
