<svg width="25" height="19" viewBox="0 0 25 19" fill="none" xmlns="http://www.w3.org/2000/svg">
<path d="M5.20846 7.91675C4.06262 7.91675 3.12512 8.62925 3.12512 9.50008C3.12512 10.3709 4.06262 11.0834 5.20846 11.0834C6.35429 11.0834 7.29179 10.3709 7.29179 9.50008C7.29179 8.62925 6.35429 7.91675 5.20846 7.91675Z" stroke="#0D1218" stroke-width="1.58957"/>
<path d="M19.7917 7.91675C18.6459 7.91675 17.7084 8.62925 17.7084 9.50008C17.7084 10.3709 18.6459 11.0834 19.7917 11.0834C20.9375 11.0834 21.875 10.3709 21.875 9.50008C21.875 8.62925 20.9375 7.91675 19.7917 7.91675Z" stroke="#0D1218" stroke-width="1.58957"/>
<path d="M12.5 7.91675C11.3541 7.91675 10.4166 8.62925 10.4166 9.50008C10.4166 10.3709 11.3541 11.0834 12.5 11.0834C13.6458 11.0834 14.5833 10.3709 14.5833 9.50008C14.5833 8.62925 13.6458 7.91675 12.5 7.91675Z" stroke="#0D1218" stroke-width="1.58957"/>
</svg>
