<svg width="22" height="19" viewBox="0 0 22 19" fill="none" xmlns="http://www.w3.org/2000/svg">
<path d="M12.9526 8.97742C13.3101 7.67909 11.9993 6.547 10.4959 6.85575C9.79008 7.00617 9.21258 7.50492 9.03842 8.1145C8.68092 9.41284 9.99175 10.5449 11.4951 10.2362C12.2101 10.0858 12.7876 9.587 12.9526 8.97742Z" fill="white"/>
<path d="M5.51834 14.2262C5.35334 14.2262 5.17917 14.1708 5.05084 14.0678C3.27251 12.6428 2.255 10.632 2.255 8.542C2.255 4.37783 6.17834 0.989502 11 0.989502C15.8217 0.989502 19.745 4.37783 19.745 8.542C19.745 10.6478 18.7642 12.5953 16.9858 14.0441C16.7108 14.2658 16.2708 14.2578 16.0142 14.0203C15.7575 13.7828 15.7667 13.4028 16.0417 13.1812C17.545 11.962 18.37 10.3233 18.37 8.54992C18.37 5.04284 15.0608 2.18492 11 2.18492C6.93917 2.18492 3.63001 5.04284 3.63001 8.54992C3.63001 10.3391 4.46417 11.9858 5.98584 13.2049C6.26084 13.4266 6.27917 13.8066 6.02251 14.0441C5.88501 14.1628 5.70167 14.2262 5.51834 14.2262Z" fill="white"/>
<path d="M14.6666 12.1124C14.5016 12.1124 14.3274 12.0569 14.1991 11.954C13.9241 11.7324 13.9057 11.3524 14.1716 11.1149C14.9324 10.4182 15.3541 9.49986 15.3541 8.54986C15.3541 6.4757 13.4016 4.79736 11.0091 4.79736C8.61656 4.79736 6.66406 6.48361 6.66406 8.54986C6.66406 9.50778 7.08573 10.4182 7.84656 11.1149C8.10323 11.3524 8.09406 11.7324 7.81906 11.954C7.54406 12.1836 7.10406 12.1678 6.8474 11.9303C5.84823 11.0119 5.28906 9.80861 5.28906 8.54986C5.28906 5.82653 7.85573 3.60986 11.0091 3.60986C14.1624 3.60986 16.7291 5.82653 16.7291 8.54986C16.7291 9.80861 16.1791 11.0119 15.1707 11.9303C15.0332 12.049 14.8499 12.1124 14.6666 12.1124Z" fill="white"/>
<path d="M9.44164 13.1892L8.12164 14.6063C7.07664 15.7383 8.01164 17.4167 9.67998 17.4167H12.3108C13.9883 17.4167 14.9233 15.7383 13.8691 14.6142L12.5491 13.1971C11.7608 12.3263 10.2391 12.3263 9.44164 13.1892Z" fill="white"/>
</svg>
