<svg width="25" height="18" viewBox="0 0 25 18" fill="none" xmlns="http://www.w3.org/2000/svg">
<path d="M5.20846 7.5C4.06262 7.5 3.12512 8.175 3.12512 9C3.12512 9.825 4.06262 10.5 5.20846 10.5C6.35429 10.5 7.29179 9.825 7.29179 9C7.29179 8.175 6.35429 7.5 5.20846 7.5Z" stroke="#0D1218" stroke-width="1.58957"/>
<path d="M19.7917 7.5C18.6459 7.5 17.7084 8.175 17.7084 9C17.7084 9.825 18.6459 10.5 19.7917 10.5C20.9375 10.5 21.875 9.825 21.875 9C21.875 8.175 20.9375 7.5 19.7917 7.5Z" stroke="#0D1218" stroke-width="1.58957"/>
<path d="M12.5 7.5C11.3541 7.5 10.4166 8.175 10.4166 9C10.4166 9.825 11.3541 10.5 12.5 10.5C13.6458 10.5 14.5833 9.825 14.5833 9C14.5833 8.175 13.6458 7.5 12.5 7.5Z" stroke="#0D1218" stroke-width="1.58957"/>
</svg>
